<svg xmlns="http://www.w3.org/2000/svg" viewBox="0 0 138.4 150.6" preserveAspectRatio="xMinYMin meet">
    <defs/>
    <style>.st0{fill:#101a1f}.st5{fill:#d53e41}.st6{fill:#0d7a88}.st8{fill:#39e1e8}</style>
    <path d="M24.4 50.8v.7c-.7 0-1.3-.1-2-.1.6-.7 1.3-.7 2-.6z" class="st0"/>
    <path fill="#b80482"
          d="M110.6 99.4c-4.3 4.9-9 9.1-15.2 11.5-.8.3-1.6.6-2.5.8-.9.2-1.9.9-2.8-.1-.8-1-.5-2.1-.1-3.2 1.8-4.6 3.6-9.3 5.4-13.9.5-1.3 1.1-2.5 1-3.9.6-.3.7-.8.7-1.4.7-.3.8-.9.8-1.6.7-.3.8-.9.8-1.5 1.4-1.8 2.1-4 2.9-6 2.2-1.5 3.3-4 4.7-6.1 1.7-2.5 3.2-3 5.6-1.3 3.8 9 2.8 17.9-1.3 26.7z"/>
    <path fill="#fcf57e"
          d="M118.4 52.4c-1.7 1.1-2.9 2.5-4.1 4.1-.2.1-.5.2-.7.4-2.3.8-3.9.3-5-2.2-2.2-4.9-6-8.6-10.6-11.4-1.1-.7-2-1.5-2.7-2.4-.7-1-1-2.3.8-2.9 10.8-3.6 21.3-5 31.4 2.2l.1.1c1.3 1.4 2.4 2.9 3.1 4.7 0 .4.1.7.1 1.1-4.3 1.7-8.7 3-12.2 6.3h-.2z"/>
    <path fill="#a1f91d"
          d="M94.8 83c-2.3 1.7-3.2 4.6-5.3 6.5-1.4 1.2-2.7 2.2-4.7 2.8-2.6.8-3.7-.9-3.3-2.3 1.4-5.5-.1-11.8 4.5-16.5.8-1.4 3-1.8 2.7-4 .2-.1.3-.3.2-.6 2.4-3.9 2.3-8.3 2.1-12.6 0-1 0-2.1 1.3-2.3 1.3-.3 1.5.9 2 1.8 4.6 8.9 4.2 18 .5 27.2z"/>
    <path fill="#208110"
          d="M83.5 68c-.4-3.2-1.8-6.2-1.4-9.4.3-2.2.9-4.2 3.8-4 2.9.2 2.3 2.4 2.2 4.2-.1 2.1-.6 4.1-.9 6.2-1.3.9-.4 4.5-3.7 3z"/>
    <path d="M11.8 20c-.6-.8-1.3-1.6-1.7-2.4-.5-.9-2-1.6-.7-2.8 1-1 2.1-.5 3.1.1s2.4.8 2.8 2.2c-1.1.2-2.4-.5-3.3.6.4 1 1.4 1.7 1.2 2.9-.2 0-.4 0-.7-.1-.2-.2-.4-.4-.7-.5z"
          class="st5"/>
    <path d="M91.4 94.3c-.3-.1-.7-.2-1-.3-.5.2-1 .5-1.5.7-1.1.2-2.2.3-3.3.5-.8 1.7-2 3-4 3-.1 1.5-1.1 2.2-2.3 2.9-.1 1.2-.7 2.1-1.4 3-.1.5-.2.9-.3 1.4-.2 1-.4 1.9-.5 2.9-.2 1.7-.9 3.7 1.4 4.4 2.2.7 4.4.9 5.9-1.6 1-1.7 2.1-3.3 3.1-5 .8-1.7 1.6-3.5 2.4-5.2 2.4-1.3 2.7-3.7 2.9-6 .4-.7-.3-1.1-1.4-.7z"
          class="st6"/>
    <path d="M98 87.6zM76.1 56.6c-.3-.4-.6-.7-.6-.9 0-.5.2-1 .8-.8.2.1.4.5.4.8 0 .3-.3.5-.6.9z" class="st0"/>
    <path d="M77.7 117.5h3.7c.9 1 2 2 .9 3.5-2.6 3.6-4.8 7.5-8.4 10.3-.8.7-1.8 2.1-2.9.3.2-.2.3-.4.5-.6.1-.3.2-.5.2-.8.1-.2.3-.4.4-.7.1-.3.2-.7.3-1 1.5-1.9 2.2-4.2 2.9-6.5 1.1-1.3.9-3.4 2.4-4.5z"
          class="st6"/>
    <path d="M75.3 122c-.7 2.3-1.4 4.6-2.9 6.5.3-2.4.1-5.2 2.9-6.5zM69.4 116c.1-1.5 1.2-1.5 2.2-1.5 0 1.5-1.1 1.5-2.2 1.5zM72.1 129.6c-.1.2-.3.4-.4.7.1-.3.3-.5.4-.7zM71.4 131c-.2.2-.3.4-.5.6.2-.1.4-.3.5-.6z"
          class="st0"/>
    <path fill="#e7fc07"
          d="M75.3 103.4c-1.9-1-3.5-2-5.9-1.1-5 1.8-10.1 3.1-15.6 3.4-4.8.2-9.5 1.6-13.6 4.4-1.5-.1-1.6 1.1-1.5 2 .2 1.3 1.3.8 2.1.7 5.6-.7 11.1-.5 16.6.1 4.5.5 9.2 1.8 13.7-.4l.1-.1 2.7-4.8c-.9-3.9-1.6-5.4-3.4-4.8 1.8-.6 2.5.9 3.4 4.8.2 0 .4 0 .5-.1.3-.7.6-1.3.9-2 .1-.7.1-1.4 0-2.1z"/>
    <path d="M29.5 44.1c4.2.4 8.7.1 11.4 4.5-1.7-.6-3.4-1.1-5-1.7-2.1-1.4-4.7-1.1-6.4-2.8zM40.9 48.6c.6 0 1.3 0 1.1.8 0 .2-.7.3-1.1.5v-1.3z"
          class="st5"/>
    <path d="M64.9 63.5zM76.3 62.5c-1.1-2.9-2.9-3.5-5.4-1.7-1.8 1.3-3.6 2.6-5.9 2.7-.4.9-1.3 1-2 1.4-3.2 2-7.3 1.8-10.2 4.4-1 .1-2.6-.3-2.6 1.3 0 1.1 1.4 1.1 2.3 1.1h2.6c5.5 2.1 11.1 2.8 16.9 1.7 2.1-.4 4.7.1 5.1-2.9.3-2.7.2-5.4-.8-8z"
          class="st8"/>
    <path d="M70 49.4L64.9 44c-6.8-4.8-14.1-8.9-21.8-12.1-.9-.5-1.9-1-2.8-1.5-.8-.5-1.7-1-2.5-1.5-5.2-3.1-10.9-5.1-15.8-8.7-.9-.1-1.8-.3-2.7-.4-1.3-.9-2.7-1.8-4-2.8-1.1.2-2.4-.5-3.3.6.4 1 1.4 1.7 1.2 2.9 1.1.9 2.3 1.7 3.4 2.6l2.7 2.7c3.1 2 6.3 3.9 9.4 5.9.8.5 2.4.9 1.9 2.3-.4 1.1-1.7 1.5-2.8 1.6-1.3.1-2.7-.1-4.1-.2-1.6-.1-3.2-.4-4.8-.5-1.2-.1-2.8-.4-3.3 1-.5 1.6 1.2 2.2 2.3 2.9 1.9 1.2 3.8 2.3 5.7 3.5 1.7.5 3.5 1.1 5.2 1.6l.2.1h.3c4.2.4 8.7.1 11.4 4.5l.1.1c.6 0 1.3 0 1.1.8 0 .2-.7.3-1.1.5l-.1.1c-4.5.8-9 1.7-13.4 2.5-1.2.2-1.7 1.2-1.8 2.1-.1 1.1 1 1.2 1.7 1.5 1 .5 1.9 1 2.9 1.5 12.7 7.5 30 2.2 40-5 1.5-1.1.8-2.2-.1-3.2z"
          class="st5"/>
    <path fill="#1c2108"
          d="M129.3 36.5c-8.2-7.1-20.2-7.8-31.4-2.1-3-.4-5.4.8-7.2 2.9-1.1 1.3 0 2.9.6 4.2.8 1.5 2.4 2 3.7 2.9 4.8 3.6 9.9 6.8 11.5 13.2.1.6.3 1.2.3 1.8 0 .9.7 2.1-.6 2.5-1.6.5-1.9-1.1-2.1-2-.9-5.2-4.5-7.9-9.2-9.4-2.6-1.4-5.5-2.1-8.3-2.7-2.6-1.5-5.7-1.2-8.3-2.8-7.3-4.3-14.5-8.8-21.9-12.9C37.8 21.8 18.6 12.7 1.3 0 1.2-.1.9.1.7.2c-.3 2.7 2.1 5.2.5 8.2-2.1 3.9-1.3 6.7 2.1 9.5 2.2 1.9 4.4 3.7 6.2 6 1.1 1.4 1.6 2.7-.5 3.9-4.5 2.5-4.6 3.9-1.4 8 4.6 6.3 12 9.2 17.6 14.2-.2.3-.5.5-.7.8v.7c-.7 0-1.3-.1-2-.1-1.6.2-3.2.4-4.8.7-1.6.2-3.6 0-3.9 2.1-.3 1.9.9 3.7 2.5 4.2 4.7 1.5 7.9 5.5 12.4 7.2 1.4.5 3 1.1 4.3 2.8-4.8 1.9-10.3 0-14.4 3.3 15.6 8.8 29.9 19.6 46 28.1-2.8.7-5.3 1.4-7.8 2-5.8.9-11.4 2.4-16.5 5.3-4.1 1.5-7.1 4.4-10.2 7.3-.6.6-1.6 1.3-1 2.1.4.6 1.5.9 2.3.9 3.2-.2 6.4-.5 9.6-.8 1.5 0 3 0 4.5-.1H50c5.8.4 11.7.3 17.5.9 5.3.5 5.8.8 4.1 5.6-.5 1.4-1.2 2.7-1.9 4.1-3.3 6.8-6.7 13.6-10.1 20.5-.4.8-1.4 1.7-.3 2.6.8.6 1.9.5 2.8-.1.8-.5 1.6-1.1 2.3-1.8 10.4-9.5 17.1-22.1 26.8-32.2.9-1.2 2.9-.1 3.6-1.7.9 0 1.8.3 2.6 0 12.7-4.4 21.5-13.5 23.7-26.5 1.2-7.2-.5-14.1-2.2-21-1.6-6.5.8-11.3 6.6-14.3 3.9-2 8-3.3 12.9-2.4-2.2-5.4-4.9-10.1-9.1-13.7zM82.1 58.6c.3-2.2.9-4.2 3.8-4 2.9.2 2.3 2.4 2.2 4.2-.1 2.1-.6 4.1-.9 6.2-1.3 1-.4 4.6-3.8 3.1-.3-3.2-1.8-6.2-1.3-9.5zm-.6 31.3c1.4-5.5-.1-11.8 4.5-16.5.8-1.4 3-1.8 2.7-4 .2-.1.3-.3.2-.6 2.4-3.9 2.3-8.3 2.1-12.6 0-1 0-2.1 1.3-2.3 1.3-.3 1.5.9 2 1.8 4.5 9 4.2 18.1.5 27.3-2.3 1.7-3.2 4.6-5.3 6.5-1.4 1.2-2.7 2.2-4.7 2.8-2.5.7-3.6-.9-3.3-2.4zm-16.4-46c-.1 0 0 0 0 0zm-41.6-1.3c.1 0 0 0 0 0zm6.7 15c-1-.5-1.9-1-2.9-1.5-.8-.3-1.9-.4-1.7-1.5.1-1 .6-1.9 1.8-2.1 4.5-.8 9-1.7 13.4-2.5l.1-.1v-1.3l-.1-.1c-1.7-.6-3.4-1.1-5-1.7l-.1.1.1-.1c-1.9-1.3-4.5-1.1-6.3-2.8h-.6c-1.7-.5-3.5-1.1-5.2-1.6l-.1.1.1-.1c-1.9-1.2-3.8-2.3-5.7-3.5-1.1-.7-2.8-1.3-2.3-2.9.4-1.4 2.1-1.1 3.3-1 1.6.1 3.2.3 4.8.5 1.4.1 2.7.3 4.1.2 1.1-.1 2.4-.5 2.8-1.6.5-1.4-1.1-1.8-1.9-2.3-3.1-2-6.3-3.9-9.4-5.9l-2.7-2.7c-1.1-.9-2.3-1.7-3.4-2.6-.2 0-.4 0-.7-.1-.2-.2-.5-.3-.7-.5-.6-.8-1.3-1.6-1.7-2.4-.5-.9-2-1.6-.7-2.8 1-1 2.1-.5 3.1.1s2.4.8 2.8 2.2c1.3.9 2.7 1.8 4 2.8.9.1 1.8.3 2.7.4 4.9 3.6 10.6 5.6 15.8 8.7.8.5 1.7 1 2.5 1.5.9.5 1.9 1 2.8 1.5 7.7 3.2 14.9 7.3 21.8 12.1l5.1 5.4c.9 1 1.6 2.1.2 3.1-10.2 7.2-27.4 12.5-40.1 5zM55 71.8h-2.6c-1 0-2.3 0-2.3-1.1 0-1.5 1.5-1.1 2.6-1.3 2.9-2.6 7-2.5 10.2-4.4.7-.4 1.6-.5 2-1.4 2.3-.1 4.1-1.5 5.9-2.7 2.5-1.8 4.3-1.2 5.4 1.7 1 2.6 1.1 5.4.8 8.1-.4 3.1-3 2.6-5.1 2.9-5.8 1-11.4.3-16.9-1.8zm-14.1 42.7h1.2-1.2zm16.6-1.7c-5.6-.6-11.1-.8-16.6-.1-.8.1-1.9.6-2.1-.7-.1-.9 0-2.1 1.5-2 4.1-2.8 8.8-4.2 13.6-4.4 5.5-.2 10.6-1.6 15.6-3.4 2.4-.8 4.1.1 5.9 1.1 0 .7.1 1.4.1 2.1-.3.7-.6 1.3-.9 2-.2 1.3.3 3.1-.2 4.1.6-1 0-2.8.2-4.1-.2 0-.3.1-.5.1l-2.7 4.8-.1.1c-4.6 2.2-9.3.9-13.8.4zm16.6-.8c-.1.1-.3.2-.4.3.1-.1.3-.2.4-.3zm-4.7 4c.1-1.5 1.2-1.5 2.2-1.5 0 1.5-1.1 1.5-2.2 1.5zm2.2-1.5c0-.1 0-.2-.1-.3.1.1.1.2.1.3zm10.6 6.6c-2.6 3.6-4.8 7.5-8.4 10.3-.8.7-1.8 2.1-2.9.3.2-.2.3-.4.5-.6.1-.3.2-.5.2-.8.1-.2.3-.4.4-.7.1-.3.2-.7.3-1 .3-2.5.1-5.2 2.9-6.5 1.1-1.3.9-3.4 2.4-4.5h3.7c.9 1 2 2 .9 3.5zm5.9-11.1c-.2-1.2-.4-2.5-.6-3.7-1 1.7-2.1 3.3-3.1 5-1.5 2.5-3.7 2.3-5.9 1.6-2.3-.8-1.5-2.8-1.4-4.4.1-1 .3-1.9.5-2.9.1-.5.2-.9.3-1.4.8-.9 1.3-1.8 1.4-3 1.1-.7 2.1-1.5 2.3-2.9 2.1 0 3.2-1.3 4-3 1.1-.2 2.2-.3 3.3-.5.5-.2 1-.4 1.5-.7.3.1.7.2 1 .3 0 0 1.9-.4 1.3.8-.2 2.4-.4 4.7-2.9 6-.8 1.7-1.6 3.5-2.4 5.2.3 1.1.5 2.4.7 3.6.2 1.7.8 3.2 1.8 4.5-1-1.3-1.6-2.8-1.8-4.5zm22.5-10.6c-4.3 4.9-9 9.1-15.2 11.5-.8.3-1.6.6-2.5.8-.9.2-1.9.9-2.8-.1-.8-1-.5-2.1-.1-3.2 1.8-4.6 3.6-9.3 5.4-13.9.5-1.3 1.1-2.5 1-3.9.6-.3.7-.8.7-1.4.7-.3.8-.9.8-1.6.6-.3.7-.9.7-1.5 1.4-1.8 2.1-4 2.9-6 2.2-1.5 3.3-4 4.7-6.1 1.7-2.5 3.2-3 5.6-1.3 3.9 9 2.9 17.9-1.2 26.7zm8-47.1l-.2.1c-1.7 1.1-2.9 2.5-4.1 4.1-.2.1-.5.2-.7.4-2.3.8-3.9.3-5-2.2-2.2-4.9-6-8.6-10.6-11.4-1.1-.7-2-1.5-2.7-2.4-.7-1-1-2.3.8-2.9 10.8-3.6 21.3-5 31.4 2.2l.1.1c1.3 1.4 2.4 2.9 3.1 4.7 0 .4.1.7.1 1.1-4.3 1.6-8.8 2.9-12.2 6.2z"/>
    <path fill="#3333c8"
          d="M44.7 83.7c-.3-.2-.6-.5-.8-.7-2.6-2.5-5.8-4.3-8.9-6.2.1-.2.1-.4 0-.6-1.8-1 .2-1 .3-.6 2.9-.9 5.8-.2 8.6-.1 10.6 3.5 21.5 3.6 32.5 2.8.2 0 .3-.3.5-.5 1.3.3 1.1 2.4 2.7 2.3.1 1 .2 1.9.3 2.9-.3 1.8-.5 3.7-1.1 5.4-1 3.1-2.1 6.2-6 7.3-2.2.6-3.8-.9-5.8-.7l-.3-.1h-.3c-2.7-1.2-5.4-2.6-8.4-3-.6-1.2-1.7-1.6-3-1.6-1.7-1.8-3.9-2.7-6.1-3.6l-.8-.8c-.7-1-1.9-1.9-3.4-2.2z"/>
</svg>