<?xml version="1.0" encoding="utf-8"?>
<!-- Generator: Adobe Illustrator 22.0.0, SVG Export Plug-In . SVG Version: 6.00 Build 0)  -->
<svg version="1.1" id="Layer_1" xmlns="http://www.w3.org/2000/svg" xmlns:xlink="http://www.w3.org/1999/xlink" x="0px" y="0px"
	 viewBox="0 0 138.4 150.6" style="enable-background:new 0 0 138.4 150.6;" xml:space="preserve">
<style type="text/css">
	.st0{fill:#101A1F;}
	.st1{fill:#B80482;}
	.st2{fill:#FCF57E;}
	.st3{fill:#A1F91D;}
	.st4{fill:#208110;}
	.st5{fill:#D53E41;}
	.st6{fill:#0D7A88;}
	.st7{fill:#E7FC07;}
	.st8{fill:#39E1E8;}
	.st9{fill:#1C2108;}
	.st10{fill:#3333C8;}
</style>
<g>
	<path class="st0" d="M24.4,50.8c0,0.2,0,0.4,0,0.7c-0.7,0-1.3-0.1-2-0.1C23,50.7,23.7,50.7,24.4,50.8z"/>
	<path class="st1" d="M110.6,99.4c-4.3,4.9-9,9.1-15.2,11.5c-0.8,0.3-1.6,0.6-2.5,0.8c-0.9,0.2-1.9,0.9-2.8-0.1
		c-0.8-1-0.5-2.1-0.1-3.2c1.8-4.6,3.6-9.3,5.4-13.9c0.5-1.3,1.1-2.5,1-3.9c0.6-0.3,0.7-0.8,0.7-1.4c0.7-0.3,0.8-0.9,0.8-1.6
		c0,0,0,0,0,0c0.7-0.3,0.8-0.9,0.8-1.5c1.4-1.8,2.1-4,2.9-6c2.2-1.5,3.3-4,4.7-6.1c1.7-2.5,3.2-3,5.6-1.3
		C115.7,81.7,114.7,90.6,110.6,99.4z"/>
	<path class="st2" d="M118.4,52.4c-1.7,1.1-2.9,2.5-4.1,4.1c-0.2,0.1-0.5,0.2-0.7,0.4c-2.3,0.8-3.9,0.3-5-2.2
		c-2.2-4.9-6-8.6-10.6-11.4c-1.1-0.7-2-1.5-2.7-2.4c-0.7-1-1-2.3,0.8-2.9c10.8-3.6,21.3-5,31.4,2.2c0,0,0.1,0.1,0.1,0.1
		c1.3,1.4,2.4,2.9,3.1,4.7c0,0.4,0.1,0.7,0.1,1.1c-4.3,1.7-8.7,3-12.2,6.3L118.4,52.4z"/>
	<path class="st3" d="M94.8,83c-2.3,1.7-3.2,4.6-5.3,6.5c-1.4,1.2-2.7,2.2-4.7,2.8c-2.6,0.8-3.7-0.9-3.3-2.3
		c1.4-5.5-0.1-11.8,4.5-16.5c0.8-1.4,3-1.8,2.7-4c0.2-0.1,0.3-0.3,0.2-0.6c2.4-3.9,2.3-8.3,2.1-12.6c0-1,0-2.1,1.3-2.3
		c1.3-0.3,1.5,0.9,2,1.8C98.9,64.7,98.5,73.8,94.8,83z"/>
	<path class="st4" d="M83.5,68c-0.4-3.2-1.8-6.2-1.4-9.4c0.3-2.2,0.9-4.2,3.8-4c2.9,0.2,2.3,2.4,2.2,4.2c-0.1,2.1-0.6,4.1-0.9,6.2
		C85.9,65.9,86.8,69.5,83.5,68z"/>
	<path class="st5" d="M11.8,20c-0.6-0.8-1.3-1.6-1.7-2.4c-0.5-0.9-2-1.6-0.7-2.8c1-1,2.1-0.5,3.1,0.1c1,0.6,2.4,0.8,2.8,2.2
		c-1.1,0.2-2.4-0.5-3.3,0.6c0.4,1,1.4,1.7,1.2,2.9c-0.2,0-0.4,0-0.7-0.1C12.3,20.3,12.1,20.1,11.8,20z"/>
	<path class="st6" d="M91.4,94.3c-0.3-0.1-0.7-0.2-1-0.3c-0.5,0.2-1,0.5-1.5,0.7c-1.1,0.2-2.2,0.3-3.3,0.5c-0.8,1.7-2,3-4,3
		c-0.1,1.5-1.1,2.2-2.3,2.9c0,0,0,0,0,0c-0.1,1.2-0.7,2.1-1.4,3c-0.1,0.5-0.2,0.9-0.3,1.4c-0.2,1-0.4,1.9-0.5,2.9
		c-0.2,1.7-0.9,3.7,1.4,4.4c2.2,0.7,4.4,0.9,5.9-1.6c1-1.7,2.1-3.3,3.1-5c0.8-1.7,1.6-3.5,2.4-5.2c2.4-1.3,2.7-3.7,2.9-6
		C93.2,94.3,92.5,93.9,91.4,94.3z"/>
	<path class="st0" d="M98,87.6C98,87.6,98,87.6,98,87.6C98,87.6,98,87.6,98,87.6L98,87.6z"/>
	<path class="st0" d="M76.1,56.6c-0.3-0.4-0.6-0.7-0.6-0.9c0-0.5,0.2-1,0.8-0.8c0.2,0.1,0.4,0.5,0.4,0.8
		C76.7,56,76.4,56.2,76.1,56.6z"/>
	<path class="st6" d="M77.7,117.5c1.2,0,2.4,0,3.7,0c0.9,1,2,2,0.9,3.5c-2.6,3.6-4.8,7.5-8.4,10.3c-0.8,0.7-1.8,2.1-2.9,0.3
		c0.2-0.2,0.3-0.4,0.5-0.6c0.1-0.3,0.2-0.5,0.2-0.8c0.1-0.2,0.3-0.4,0.4-0.7c0.1-0.3,0.2-0.7,0.3-1c1.5-1.9,2.2-4.2,2.9-6.5
		C76.4,120.7,76.2,118.6,77.7,117.5z"/>
	<path class="st0" d="M75.3,122c-0.7,2.3-1.4,4.6-2.9,6.5C72.7,126.1,72.5,123.3,75.3,122z"/>
	<path class="st0" d="M69.4,116c0.1-1.5,1.2-1.5,2.2-1.5C71.6,116,70.5,116,69.4,116z"/>
	<path class="st0" d="M72.1,129.6c-0.1,0.2-0.3,0.4-0.4,0.7C71.8,130,72,129.8,72.1,129.6z"/>
	<path class="st0" d="M71.4,131c-0.2,0.2-0.3,0.4-0.5,0.6C71.1,131.5,71.3,131.3,71.4,131z"/>
	<path class="st7" d="M75.3,103.4c-1.9-1-3.5-2-5.9-1.1c-5,1.8-10.1,3.1-15.6,3.4c-4.8,0.2-9.5,1.6-13.6,4.4c-1.5-0.1-1.6,1.1-1.5,2
		c0.2,1.3,1.3,0.8,2.1,0.7c5.6-0.7,11.1-0.5,16.6,0.1c4.5,0.5,9.2,1.8,13.7-0.4c0,0,0.1-0.1,0.1-0.1c0.9-1.6,1.8-3.2,2.7-4.8
		c-0.9-3.9-1.6-5.4-3.4-4.8c1.8-0.6,2.5,0.9,3.4,4.8c0.2,0,0.4,0,0.5-0.1c0.3-0.7,0.6-1.3,0.9-2C75.4,104.8,75.4,104.1,75.3,103.4z"
		/>
	<path class="st5" d="M29.5,44.1c4.2,0.4,8.7,0.1,11.4,4.5c-1.7-0.6-3.4-1.1-5-1.7C33.8,45.5,31.2,45.8,29.5,44.1z"/>
	<path class="st5" d="M40.9,48.6c0.6,0,1.3,0,1.1,0.8c0,0.2-0.7,0.3-1.1,0.5C40.9,49.5,40.9,49,40.9,48.6z"/>
	<g>
		<polygon class="st8" points="64.9,63.5 64.9,63.5 64.9,63.5 		"/>
		<path class="st8" d="M76.3,62.5c-1.1-2.9-2.9-3.5-5.4-1.7c-1.8,1.3-3.6,2.6-5.9,2.7c-0.4,0.9-1.3,1-2,1.4c-3.2,2-7.3,1.8-10.2,4.4
			c-1,0.1-2.6-0.3-2.6,1.3c0,1.1,1.4,1.1,2.3,1.1c0.9,0,1.7,0,2.6,0c5.5,2.1,11.1,2.8,16.9,1.7c2.1-0.4,4.7,0.1,5.1-2.9
			C77.4,67.8,77.3,65.1,76.3,62.5z"/>
	</g>
	<path class="st5" d="M70,49.4c-1.7-1.8-3.4-3.6-5.1-5.4c-6.8-4.8-14.1-8.9-21.8-12.1c-0.9-0.5-1.9-1-2.8-1.5
		c-0.8-0.5-1.7-1-2.5-1.5c-5.2-3.1-10.9-5.1-15.8-8.7c-0.9-0.1-1.8-0.3-2.7-0.4c-1.3-0.9-2.7-1.8-4-2.8c-1.1,0.2-2.4-0.5-3.3,0.6
		c0.4,1,1.4,1.7,1.2,2.9c1.1,0.9,2.3,1.7,3.4,2.6c0.9,0.9,1.8,1.8,2.7,2.7c3.1,2,6.3,3.9,9.4,5.9c0.8,0.5,2.4,0.9,1.9,2.3
		c-0.4,1.1-1.7,1.5-2.8,1.6c-1.3,0.1-2.7-0.1-4.1-0.2c-1.6-0.1-3.2-0.4-4.8-0.5c-1.2-0.1-2.8-0.4-3.3,1c-0.5,1.6,1.2,2.2,2.3,2.9
		c1.9,1.2,3.8,2.3,5.7,3.5c1.7,0.5,3.5,1.1,5.2,1.6c0,0,0.2,0.1,0.2,0.1l0.3,0c4.2,0.4,8.7,0.1,11.4,4.5c0,0,0.1,0.1,0.1,0.1
		c0.6,0,1.3,0,1.1,0.8c0,0.2-0.7,0.3-1.1,0.5c0,0-0.1,0.1-0.1,0.1c-4.5,0.8-9,1.7-13.4,2.5c-1.2,0.2-1.7,1.2-1.8,2.1
		c-0.1,1.1,1,1.2,1.7,1.5c1,0.5,1.9,1,2.9,1.5c12.7,7.5,30,2.2,40-5C71.6,51.5,70.9,50.4,70,49.4z"/>
	<path class="st9" d="M129.3,36.5c-8.2-7.1-20.2-7.8-31.4-2.1c-3-0.4-5.4,0.8-7.2,2.9c-1.1,1.3,0,2.9,0.6,4.2c0.8,1.5,2.4,2,3.7,2.9
		c4.8,3.6,9.9,6.8,11.5,13.2c0.1,0.6,0.3,1.2,0.3,1.8c0,0.9,0.7,2.1-0.6,2.5c-1.6,0.5-1.9-1.1-2.1-2c-0.9-5.2-4.5-7.9-9.2-9.4
		c-2.6-1.4-5.5-2.1-8.3-2.7c-2.6-1.5-5.7-1.2-8.3-2.8c-7.3-4.3-14.5-8.8-21.9-12.9C37.8,21.8,18.6,12.7,1.3,0
		C1.2-0.1,0.9,0.1,0.7,0.2C0.4,2.9,2.8,5.4,1.2,8.4c-2.1,3.9-1.3,6.7,2.1,9.5c2.2,1.9,4.4,3.7,6.2,6c1.1,1.4,1.6,2.7-0.5,3.9
		c-4.5,2.5-4.6,3.9-1.4,8C12.2,42.1,19.6,45,25.2,50c-0.2,0.3-0.5,0.5-0.7,0.8c0,0.2,0,0.4,0,0.7c-0.7,0-1.3-0.1-2-0.1
		c-1.6,0.2-3.2,0.4-4.8,0.7c-1.6,0.2-3.6,0-3.9,2.1c-0.3,1.9,0.9,3.7,2.5,4.2c4.7,1.5,7.9,5.5,12.4,7.2c1.4,0.5,3,1.1,4.3,2.8
		c-4.8,1.9-10.3,0-14.4,3.3c15.6,8.8,29.9,19.6,46,28.1c-2.8,0.7-5.3,1.4-7.8,2c-5.8,0.9-11.4,2.4-16.5,5.3
		c-4.1,1.5-7.1,4.4-10.2,7.3c-0.6,0.6-1.6,1.3-1,2.1c0.4,0.6,1.5,0.9,2.3,0.9c3.2-0.2,6.4-0.5,9.6-0.8c1.5,0,3,0,4.5-0.1
		c1.5,0,3,0,4.5,0c5.8,0.4,11.7,0.3,17.5,0.9c5.3,0.5,5.8,0.8,4.1,5.6c-0.5,1.4-1.2,2.7-1.9,4.1c-3.3,6.8-6.7,13.6-10.1,20.5
		c-0.4,0.8-1.4,1.7-0.3,2.6c0.8,0.6,1.9,0.5,2.8-0.1c0.8-0.5,1.6-1.1,2.3-1.8c10.4-9.5,17.1-22.1,26.8-32.2c0.9-1.2,2.9-0.1,3.6-1.7
		c0.9,0,1.8,0.3,2.6,0c12.7-4.4,21.5-13.5,23.7-26.5c1.2-7.2-0.5-14.1-2.2-21c-1.6-6.5,0.8-11.3,6.6-14.3c3.9-2,8-3.3,12.9-2.4
		C136.2,44.8,133.5,40.1,129.3,36.5z M82.1,58.6c0.3-2.2,0.9-4.2,3.8-4c2.9,0.2,2.3,2.4,2.2,4.2c-0.1,2.1-0.6,4.1-0.9,6.2
		c0,0,0,0,0,0c-1.3,1-0.4,4.6-3.8,3.1C83.1,64.9,81.6,61.9,82.1,58.6z M81.5,89.9c1.4-5.5-0.1-11.8,4.5-16.5c0,0,0,0,0,0
		c0.8-1.4,3-1.8,2.7-4c0.2-0.1,0.3-0.3,0.2-0.6c0,0,0,0,0,0c0,0,0,0,0,0c2.4-3.9,2.3-8.3,2.1-12.6c0-1,0-2.1,1.3-2.3
		c1.3-0.3,1.5,0.9,2,1.8c4.5,9,4.2,18.1,0.5,27.3c-2.3,1.7-3.2,4.6-5.3,6.5c-1.4,1.2-2.7,2.2-4.7,2.8C82.3,93,81.2,91.4,81.5,89.9z
		 M65.1,43.9C65.1,43.9,65.1,43.9,65.1,43.9L65.1,43.9C65,43.9,65.1,43.9,65.1,43.9z M23.5,42.6C23.5,42.6,23.5,42.6,23.5,42.6
		L23.5,42.6C23.6,42.6,23.5,42.6,23.5,42.6z M30.2,57.6c-1-0.5-1.9-1-2.9-1.5c-0.8-0.3-1.9-0.4-1.7-1.5c0.1-1,0.6-1.9,1.8-2.1
		c4.5-0.8,9-1.7,13.4-2.5l0.1-0.1c0-0.4,0-0.9,0-1.3l-0.1-0.1c-1.7-0.6-3.4-1.1-5-1.7c0,0,0,0-0.1,0.1l0.1-0.1
		c-1.9-1.3-4.5-1.1-6.3-2.8l-0.3,0L28.9,44c-1.7-0.5-3.5-1.1-5.2-1.6c0,0,0,0-0.1,0.1l0.1-0.1c-1.9-1.2-3.8-2.3-5.7-3.5
		c-1.1-0.7-2.8-1.3-2.3-2.9c0.4-1.4,2.1-1.1,3.3-1c1.6,0.1,3.2,0.3,4.8,0.5c1.4,0.1,2.7,0.3,4.1,0.2c1.1-0.1,2.4-0.5,2.8-1.6
		c0.5-1.4-1.1-1.8-1.9-2.3c-3.1-2-6.3-3.9-9.4-5.9c0,0,0,0,0,0c-0.9-0.9-1.8-1.8-2.7-2.7c-1.1-0.9-2.3-1.7-3.4-2.6
		c-0.2,0-0.4,0-0.7-0.1c-0.2-0.2-0.5-0.3-0.7-0.5c-0.6-0.8-1.3-1.6-1.7-2.4c-0.5-0.9-2-1.6-0.7-2.8c1-1,2.1-0.5,3.1,0.1
		c1,0.6,2.4,0.8,2.8,2.2c1.3,0.9,2.7,1.8,4,2.8c0.9,0.1,1.8,0.3,2.7,0.4l0,0c4.9,3.6,10.6,5.6,15.8,8.7c0.8,0.5,1.7,1,2.5,1.5
		c0.9,0.5,1.9,1,2.8,1.5c7.7,3.2,14.9,7.3,21.8,12.1h0c1.7,1.8,3.4,3.6,5.1,5.4c0.9,1,1.6,2.1,0.2,3.1
		C60.1,59.8,42.9,65.1,30.2,57.6z M55,71.8c-0.9,0-1.7,0-2.6,0c-1,0-2.3,0-2.3-1.1c0-1.5,1.5-1.1,2.6-1.3c2.9-2.6,7-2.5,10.2-4.4
		c0.7-0.4,1.6-0.5,2-1.4c2.3-0.1,4.1-1.5,5.9-2.7c2.5-1.8,4.3-1.2,5.4,1.7c1,2.6,1.1,5.4,0.8,8.1c-0.4,3.1-3,2.6-5.1,2.9
		C66.1,74.6,60.5,73.9,55,71.8z M40.9,114.5L40.9,114.5c0.4,0,0.8,0,1.2,0C41.7,114.5,41.3,114.5,40.9,114.5z M57.5,112.8
		c-5.6-0.6-11.1-0.8-16.6-0.1c-0.8,0.1-1.9,0.6-2.1-0.7c-0.1-0.9,0-2.1,1.5-2c4.1-2.8,8.8-4.2,13.6-4.4c5.5-0.2,10.6-1.6,15.6-3.4
		c2.4-0.8,4.1,0.1,5.9,1.1c0,0.7,0.1,1.4,0.1,2.1c-0.3,0.7-0.6,1.3-0.9,2c-0.2,1.3,0.3,3.1-0.2,4.1c0.6-1,0-2.8,0.2-4.1
		c-0.2,0-0.3,0.1-0.5,0.1c-0.9,1.6-1.8,3.2-2.7,4.8c0,0-0.1,0.1-0.1,0.1c0,0,0,0,0,0C66.7,114.6,62,113.3,57.5,112.8z M74.1,112
		c-0.1,0.1-0.3,0.2-0.4,0.3C73.8,112.2,74,112.1,74.1,112z M69.4,116c0.1-1.5,1.2-1.5,2.2-1.5C71.6,116,70.5,116,69.4,116z
		 M71.6,114.5C71.6,114.5,71.6,114.5,71.6,114.5c0-0.1,0-0.2-0.1-0.3C71.6,114.3,71.6,114.4,71.6,114.5
		C71.6,114.5,71.6,114.5,71.6,114.5z M82.2,121.1c-2.6,3.6-4.8,7.5-8.4,10.3c-0.8,0.7-1.8,2.1-2.9,0.3c0.2-0.2,0.3-0.4,0.5-0.6
		c0.1-0.3,0.2-0.5,0.2-0.8c0.1-0.2,0.3-0.4,0.4-0.7c0.1-0.3,0.2-0.7,0.3-1c0.3-2.5,0.1-5.2,2.9-6.5c1.1-1.3,0.9-3.4,2.4-4.5
		c1.2,0,2.4,0,3.7,0c0,0,0,0,0,0C82.2,118.6,83.3,119.6,82.2,121.1z M88.1,110C88.1,110,88.1,110,88.1,110c-0.2-1.2-0.4-2.5-0.6-3.7
		c-1,1.7-2.1,3.3-3.1,5c-1.5,2.5-3.7,2.3-5.9,1.6c-2.3-0.8-1.5-2.8-1.4-4.4c0.1-1,0.3-1.9,0.5-2.9c0.1-0.5,0.2-0.9,0.3-1.4
		c0,0,0,0,0,0c0.8-0.9,1.3-1.8,1.4-3l0,0c0,0,0,0,0,0c1.1-0.7,2.1-1.5,2.3-2.9c0,0,0,0,0,0c0,0,0,0,0,0c2.1,0,3.2-1.3,4-3
		c1.1-0.2,2.2-0.3,3.3-0.5l0,0c0.5-0.2,1-0.4,1.5-0.7c0.3,0.1,0.7,0.2,1,0.3c0,0,1.9-0.4,1.3,0.8c-0.2,2.4-0.4,4.7-2.9,6
		c-0.8,1.7-1.6,3.5-2.4,5.2C87.7,107.5,87.9,108.8,88.1,110c0.2,1.7,0.8,3.2,1.8,4.5C88.9,113.2,88.3,111.7,88.1,110z M110.6,99.4
		c-4.3,4.9-9,9.1-15.2,11.5c-0.8,0.3-1.6,0.6-2.5,0.8c-0.9,0.2-1.9,0.9-2.8-0.1c-0.8-1-0.5-2.1-0.1-3.2c1.8-4.6,3.6-9.3,5.4-13.9
		c0.5-1.3,1.1-2.5,1-3.9c0,0,0,0,0,0c0.6-0.3,0.7-0.8,0.7-1.4c0,0,0,0,0,0c0.7-0.3,0.8-0.9,0.8-1.6c0.6-0.3,0.7-0.9,0.7-1.5
		c1.4-1.8,2.1-4,2.9-6c0,0,0,0,0,0c2.2-1.5,3.3-4,4.7-6.1c1.7-2.5,3.2-3,5.6-1.3C115.7,81.7,114.7,90.6,110.6,99.4z M118.6,52.3
		l-0.2,0.1c-1.7,1.1-2.9,2.5-4.1,4.1l0,0c-0.2,0.1-0.5,0.2-0.7,0.4c-2.3,0.8-3.9,0.3-5-2.2c-2.2-4.9-6-8.6-10.6-11.4
		c-1.1-0.7-2-1.5-2.7-2.4c-0.7-1-1-2.3,0.8-2.9c10.8-3.6,21.3-5,31.4,2.2l0.1,0.1c0,0,0,0,0,0c1.3,1.4,2.4,2.9,3.1,4.7
		c0,0.4,0.1,0.7,0.1,1.1C126.5,47.7,122,49,118.6,52.3z"/>
	<path class="st10" d="M44.7,83.7c-0.3-0.2-0.6-0.5-0.8-0.7c-2.6-2.5-5.8-4.3-8.9-6.2c0.1-0.2,0.1-0.4,0-0.6c-1.8-1,0.2-1,0.3-0.6
		c2.9-0.9,5.8-0.2,8.6-0.1c10.6,3.5,21.5,3.6,32.5,2.8c0.2,0,0.3-0.3,0.5-0.5l0,0c1.3,0.3,1.1,2.4,2.7,2.3c0.1,1,0.2,1.9,0.3,2.9
		c-0.3,1.8-0.5,3.7-1.1,5.4c-1,3.1-2.1,6.2-6,7.3c-2.2,0.6-3.8-0.9-5.8-0.7l-0.3-0.1c0,0-0.3,0-0.3,0c-2.7-1.2-5.4-2.6-8.4-3
		c0,0,0,0,0,0c-0.6-1.2-1.7-1.6-3-1.6c0,0,0,0,0,0c-1.7-1.8-3.9-2.7-6.1-3.6c-0.3-0.3-0.5-0.5-0.8-0.8C47.4,84.9,46.2,84,44.7,83.7z
		"/>
</g>
</svg>
